<svg id="flat" height="512" viewBox="0 0 512 512" width="512" xmlns="http://www.w3.org/2000/svg"><circle cx="256" cy="104" fill="#ffc431" r="80"/><path d="m448 248h-168c-.00117 8 0 104 0 104h168z" fill="#8098ab"/><path d="m448 288v-16l-56-.00024v-23.99976h-16v23.99976l-48-.00013v-23.99963h-16v23.99963l-32.001-.00012v16l32.001.00012v16.00037h-32v16h32v32h16v-32h48v32h16v-32h56v-16h-56v-16.00024zm-72 16h-48v-16.00037l48 .00013z" fill="#718799"/><path d="m24 456h464v32h-464z" fill="#d1e4ff"/><path d="m464 344v112h-416v-224h232a111.97372 111.97372 0 0 0 64 101.21 107.88486 107.88486 0 0 0 16 6.14 111.59149 111.59149 0 0 0 32 4.65z" fill="#e8f2ff"/><g fill="#d1e4ff"><path d="m72 256h32v16h-32z"/><path d="m72 288h32v16h-32z"/><path d="m72 320h32v16h-32z"/><path d="m72 352h32v16h-32z"/><path d="m72 384h32v16h-32z"/><path d="m72 416h32v16h-32z"/><path d="m120 232h16v224h-16z"/><path d="m232 232h16v224h-16z"/><path d="m360 339.35v116.65h-16v-122.79a107.88486 107.88486 0 0 0 16 6.14z"/><path d="m200 320h16v32h-16z"/></g><path d="m248 72-24 24 16 16-8 32 40-32-8-16 24-24z" fill="#ffe28f"/><path d="m112 192h-16v-88a8.00008 8.00008 0 0 1 8-8h48v16h-40z" fill="#e0edff"/><path d="m96 208h16v24h-16z" fill="#e0edff"/><path d="m416 208h-16v-96h-40v-16h48a8.00008 8.00008 0 0 1 8 8z" fill="#e0edff"/><path d="m400 224h16v24h-16z" fill="#e0edff"/></svg>