<svg id="Layer_1" data-name="Layer 1" xmlns="http://www.w3.org/2000/svg" viewBox="0 0 1280 1024"><defs><style>.cls-1{fill:#262261;}.cls-2{fill:#eb008b;}.cls-3{fill:#fff100;}.cls-4{fill:#ec1c24;}.cls-5{fill:#f16522;}.cls-6{font-size:60.3px;fill:#2d368e;font-family:BookAntiqua-Bold, Book Antiqua;font-weight:700;}</style></defs><rect class="cls-1" x="134.7" y="144.98" width="18.6" height="18.6"/><rect class="cls-2" x="162.77" y="188.49" width="18.6" height="18.6"/><rect class="cls-3" x="273.03" y="245.11" width="18.6" height="18.6"/><rect class="cls-4" x="280.33" y="182.34" width="18.6" height="18.6"/><rect class="cls-5" x="168.41" y="245.11" width="18.6" height="18.6"/><rect class="cls-1" x="200.21" y="195.05" width="18.6" height="18.6"/><rect class="cls-2" x="228.27" y="238.55" width="18.6" height="18.6"/><rect class="cls-3" x="161.31" y="761.93" width="18.6" height="18.6"/><rect class="cls-4" x="168.62" y="699.16" width="18.6" height="18.6"/><rect class="cls-5" x="233.92" y="295.18" width="18.6" height="18.6"/><rect class="cls-1" x="162.77" y="162.78" width="18.6" height="18.6"/><rect class="cls-2" x="190.83" y="206.28" width="18.6" height="18.6"/><rect class="cls-3" x="123.87" y="729.66" width="18.6" height="18.6"/><rect class="cls-4" x="131.17" y="666.89" width="18.6" height="18.6"/><rect class="cls-5" x="196.48" y="262.91" width="18.6" height="18.6"/><rect class="cls-1" x="190.91" y="143.96" width="18.6" height="18.6"/><rect class="cls-2" x="218.98" y="187.46" width="18.6" height="18.6"/><rect class="cls-3" x="152.01" y="710.84" width="18.6" height="18.6"/><rect class="cls-4" x="159.32" y="648.07" width="18.6" height="18.6"/><rect class="cls-5" x="224.62" y="244.09" width="18.6" height="18.6"/><rect class="cls-1" x="136.16" y="183.63" width="18.6" height="18.6"/><rect class="cls-2" x="164.22" y="227.14" width="18.6" height="18.6"/><rect class="cls-3" x="209.51" y="297.92" width="18.6" height="18.6"/><rect class="cls-4" x="216.82" y="235.15" width="18.6" height="18.6"/><rect class="cls-5" x="169.87" y="283.76" width="18.6" height="18.6"/><rect class="cls-1" x="127.31" y="238.55" width="18.6" height="18.6"/><rect class="cls-2" x="155.38" y="282.06" width="18.6" height="18.6"/><rect class="cls-3" x="265.64" y="338.68" width="18.6" height="18.6"/><rect class="cls-4" x="272.94" y="275.91" width="18.6" height="18.6"/><rect class="cls-5" x="161.02" y="338.68" width="18.6" height="18.6"/><rect class="cls-1" x="155.46" y="288.62" width="18.6" height="18.6"/><rect class="cls-2" x="183.52" y="332.12" width="18.6" height="18.6"/><rect class="cls-3" x="255.15" y="387.5" width="18.6" height="18.6"/><rect class="cls-4" x="262.46" y="324.73" width="18.6" height="18.6"/><rect class="cls-5" x="189.17" y="388.75" width="18.6" height="18.6"/><rect class="cls-3" x="126.69" y="368.2" width="18.6" height="18.6"/><rect class="cls-4" x="134" y="305.43" width="18.6" height="18.6"/><rect class="cls-3" x="139.35" y="324.01" width="18.6" height="18.6"/><rect class="cls-4" x="146.66" y="261.25" width="18.6" height="18.6"/><rect class="cls-3" x="204.86" y="374.08" width="18.6" height="18.6"/><rect class="cls-4" x="212.17" y="311.31" width="18.6" height="18.6"/><rect class="cls-3" x="167.42" y="341.81" width="18.6" height="18.6"/><rect class="cls-4" x="174.72" y="279.04" width="18.6" height="18.6"/><rect class="cls-3" x="195.56" y="322.99" width="18.6" height="18.6"/><rect class="cls-4" x="202.87" y="260.22" width="18.6" height="18.6"/><rect class="cls-3" x="131.96" y="417.59" width="18.6" height="18.6"/><rect class="cls-4" x="139.27" y="354.82" width="18.6" height="18.6"/><rect class="cls-3" x="160.11" y="467.65" width="18.6" height="18.6"/><rect class="cls-4" x="167.42" y="404.88" width="18.6" height="18.6"/><rect class="cls-1" x="139.35" y="352.77" width="18.6" height="18.6"/><rect class="cls-2" x="167.42" y="396.28" width="18.6" height="18.6"/><rect class="cls-5" x="173.06" y="452.9" width="18.6" height="18.6"/><rect class="cls-1" x="204.86" y="402.83" width="18.6" height="18.6"/><rect class="cls-1" x="167.42" y="370.56" width="18.6" height="18.6"/><rect class="cls-2" x="195.48" y="414.07" width="18.6" height="18.6"/><rect class="cls-5" x="201.12" y="470.7" width="18.6" height="18.6"/><rect class="cls-1" x="195.56" y="351.75" width="18.6" height="18.6"/><rect class="cls-1" x="131.96" y="446.34" width="18.6" height="18.6"/><rect class="cls-4" x="151.31" y="469.03" width="18.6" height="18.6"/><rect class="cls-2" x="197.31" y="392.59" width="18.6" height="18.6"/><rect class="cls-5" x="202.95" y="449.22" width="18.6" height="18.6"/><rect class="cls-1" x="234.75" y="399.15" width="18.6" height="18.6"/><rect class="cls-2" x="262.81" y="442.66" width="18.6" height="18.6"/><rect class="cls-5" x="268.46" y="499.28" width="18.6" height="18.6"/><rect class="cls-1" x="197.31" y="366.88" width="18.6" height="18.6"/><rect class="cls-2" x="225.37" y="410.39" width="18.6" height="18.6"/><rect class="cls-5" x="231.01" y="467.01" width="18.6" height="18.6"/><rect class="cls-1" x="225.45" y="348.06" width="18.6" height="18.6"/><rect class="cls-2" x="253.51" y="391.57" width="18.6" height="18.6"/><rect class="cls-5" x="259.16" y="448.19" width="18.6" height="18.6"/><rect class="cls-3" x="244.05" y="502.02" width="18.6" height="18.6"/><rect class="cls-4" x="251.36" y="439.26" width="18.6" height="18.6"/><rect class="cls-5" x="195.56" y="542.79" width="18.6" height="18.6"/><rect class="cls-2" x="218.06" y="536.23" width="18.6" height="18.6"/><rect class="cls-5" x="223.71" y="592.86" width="18.6" height="18.6"/><rect class="cls-3" x="239.4" y="578.19" width="18.6" height="18.6"/><rect class="cls-4" x="246.71" y="515.42" width="18.6" height="18.6"/><rect class="cls-3" x="201.96" y="545.92" width="18.6" height="18.6"/><rect class="cls-4" x="209.26" y="483.15" width="18.6" height="18.6"/><rect class="cls-3" x="230.1" y="527.1" width="18.6" height="18.6"/><rect class="cls-4" x="237.41" y="464.33" width="18.6" height="18.6"/><rect class="cls-4" x="201.96" y="608.99" width="18.6" height="18.6"/><rect class="cls-2" x="201.96" y="600.38" width="18.6" height="18.6"/><rect class="cls-5" x="207.6" y="657.01" width="18.6" height="18.6"/><rect class="cls-1" x="239.4" y="606.94" width="18.6" height="18.6"/><rect class="cls-1" x="201.96" y="574.67" width="18.6" height="18.6"/><rect class="cls-2" x="230.02" y="618.18" width="18.6" height="18.6"/><rect class="cls-5" x="235.66" y="674.8" width="18.6" height="18.6"/><rect class="cls-1" x="230.1" y="555.85" width="18.6" height="18.6"/><rect class="cls-1" x="135.41" y="386.78" width="18.6" height="18.6"/><rect class="cls-2" x="163.47" y="430.29" width="18.6" height="18.6"/><rect class="cls-5" x="169.12" y="486.91" width="18.6" height="18.6"/><rect class="cls-1" x="163.47" y="404.58" width="18.6" height="18.6"/><rect class="cls-1" x="128.02" y="480.35" width="18.6" height="18.6"/><rect class="cls-2" x="156.08" y="523.86" width="18.6" height="18.6"/><rect class="cls-5" x="161.73" y="580.48" width="18.6" height="18.6"/><rect class="cls-1" x="156.17" y="530.42" width="18.6" height="18.6"/><rect class="cls-3" x="140.06" y="565.82" width="18.6" height="18.6"/><rect class="cls-4" x="147.36" y="503.05" width="18.6" height="18.6"/><rect class="cls-3" x="168.12" y="583.61" width="18.6" height="18.6"/><rect class="cls-4" x="175.43" y="520.84" width="18.6" height="18.6"/><rect class="cls-3" x="132.67" y="659.39" width="18.6" height="18.6"/><rect class="cls-4" x="139.98" y="596.62" width="18.6" height="18.6"/><rect class="cls-3" x="160.82" y="709.45" width="18.6" height="18.6"/><rect class="cls-4" x="168.12" y="646.69" width="18.6" height="18.6"/><rect class="cls-1" x="140.06" y="594.57" width="18.6" height="18.6"/><rect class="cls-2" x="168.12" y="638.08" width="18.6" height="18.6"/><rect class="cls-5" x="173.77" y="694.7" width="18.6" height="18.6"/><rect class="cls-1" x="168.12" y="612.37" width="18.6" height="18.6"/><rect class="cls-1" x="132.67" y="688.14" width="18.6" height="18.6"/><rect class="cls-4" x="152.01" y="710.84" width="18.6" height="18.6"/><rect class="cls-3" x="266.07" y="642.43" width="18.6" height="18.6"/><rect class="cls-4" x="273.38" y="579.66" width="18.6" height="18.6"/><rect class="cls-3" x="267.26" y="611.41" width="18.6" height="18.6"/><rect class="cls-4" x="274.56" y="548.64" width="18.6" height="18.6"/><rect class="cls-3" x="256.77" y="591.34" width="18.6" height="18.6"/><rect class="cls-4" x="264.08" y="528.57" width="18.6" height="18.6"/><rect class="cls-4" x="267.26" y="674.49" width="18.6" height="18.6"/><rect class="cls-1" x="193.36" y="428.38" width="18.6" height="18.6"/><rect class="cls-1" x="221.42" y="446.17" width="18.6" height="18.6"/><rect class="cls-1" x="249.57" y="427.36" width="18.6" height="18.6"/><rect class="cls-1" x="170.4" y="661.71" width="18.6" height="18.6"/><rect class="cls-1" x="198.47" y="679.51" width="18.6" height="18.6"/><rect class="cls-1" x="226.61" y="660.69" width="18.6" height="18.6"/><rect class="cls-1" x="170.36" y="699.13" width="18.6" height="18.6"/><rect class="cls-1" x="198.43" y="716.93" width="18.6" height="18.6"/><rect class="cls-1" x="226.57" y="698.11" width="18.6" height="18.6"/><rect class="cls-1" x="170.32" y="748.89" width="18.6" height="18.6"/><rect class="cls-1" x="198.38" y="766.69" width="18.6" height="18.6"/><rect class="cls-1" x="226.53" y="747.87" width="18.6" height="18.6"/><rect class="cls-3" x="127.11" y="425.03" width="18.6" height="18.6"/><rect class="cls-4" x="134.41" y="362.26" width="18.6" height="18.6"/><rect class="cls-3" x="192.61" y="475.1" width="18.6" height="18.6"/><rect class="cls-4" x="199.92" y="412.33" width="18.6" height="18.6"/><rect class="cls-3" x="155.17" y="442.83" width="18.6" height="18.6"/><rect class="cls-4" x="162.48" y="380.06" width="18.6" height="18.6"/><rect class="cls-3" x="183.32" y="424.01" width="18.6" height="18.6"/><rect class="cls-4" x="190.62" y="361.24" width="18.6" height="18.6"/><rect class="cls-3" x="119.72" y="518.6" width="18.6" height="18.6"/><rect class="cls-4" x="127.02" y="455.83" width="18.6" height="18.6"/><rect class="cls-4" x="155.17" y="505.9" width="18.6" height="18.6"/><rect class="cls-3" x="261.78" y="728.41" width="18.6" height="18.6"/><rect class="cls-4" x="269.08" y="665.64" width="18.6" height="18.6"/><rect class="cls-3" x="224.33" y="696.14" width="18.6" height="18.6"/><rect class="cls-4" x="231.64" y="633.37" width="18.6" height="18.6"/><rect class="cls-3" x="252.48" y="677.32" width="18.6" height="18.6"/><rect class="cls-4" x="259.78" y="614.55" width="18.6" height="18.6"/><rect class="cls-4" x="224.33" y="759.21" width="18.6" height="18.6"/><rect class="cls-1" x="221.59" y="143.07" width="18.6" height="18.6"/><rect class="cls-1" x="249.65" y="160.87" width="18.6" height="18.6"/><rect class="cls-1" x="277.8" y="142.05" width="18.6" height="18.6"/><rect class="cls-1" x="221.55" y="180.49" width="18.6" height="18.6"/><rect class="cls-1" x="249.61" y="198.28" width="18.6" height="18.6"/><rect class="cls-1" x="277.76" y="179.46" width="18.6" height="18.6"/><rect class="cls-1" x="221.51" y="230.25" width="18.6" height="18.6"/><rect class="cls-1" x="249.57" y="248.04" width="18.6" height="18.6"/><rect class="cls-1" x="277.72" y="229.22" width="18.6" height="18.6"/><rect class="cls-3" x="262.42" y="419.62" width="18.6" height="18.6"/><rect class="cls-4" x="269.73" y="356.85" width="18.6" height="18.6"/><rect class="cls-4" x="232.28" y="324.58" width="18.6" height="18.6"/><rect class="cls-3" x="253.12" y="368.53" width="18.6" height="18.6"/><rect class="cls-4" x="260.43" y="305.76" width="18.6" height="18.6"/><rect class="cls-2" x="154.98" y="687.34" width="18.6" height="18.6"/><rect class="cls-2" x="184.98" y="712.06" width="18.6" height="18.6"/><rect class="cls-2" x="139.98" y="712.07" width="18.6" height="18.6"/><rect class="cls-2" x="169.98" y="736.78" width="18.6" height="18.6"/><rect class="cls-2" x="232.77" y="130.53" width="18.6" height="18.6"/><rect class="cls-2" x="262.77" y="155.24" width="18.6" height="18.6"/><rect class="cls-2" x="217.77" y="155.26" width="18.6" height="18.6"/><rect class="cls-2" x="247.77" y="179.97" width="18.6" height="18.6"/><rect class="cls-2" x="255.27" y="221.8" width="18.6" height="18.6"/><rect class="cls-2" x="285.27" y="246.51" width="18.6" height="18.6"/><rect class="cls-2" x="240.27" y="246.53" width="18.6" height="18.6"/><rect class="cls-2" x="270.27" y="271.24" width="18.6" height="18.6"/><rect class="cls-2" x="229.98" y="627.85" width="18.6" height="18.6"/><rect class="cls-2" x="259.98" y="652.56" width="18.6" height="18.6"/><rect class="cls-2" x="214.98" y="652.57" width="18.6" height="18.6"/><rect class="cls-2" x="244.98" y="677.29" width="18.6" height="18.6"/><rect class="cls-2" x="252.48" y="719.11" width="18.6" height="18.6"/><rect class="cls-2" x="282.48" y="743.83" width="18.6" height="18.6"/><rect class="cls-2" x="237.48" y="743.84" width="18.6" height="18.6"/><rect class="cls-2" x="267.48" y="768.56" width="18.6" height="18.6"/><rect class="cls-3" x="546.46" y="129.69" width="18.6" height="18.6"/><rect class="cls-3" x="546.46" y="151.68" width="18.6" height="18.6"/><rect class="cls-3" x="546.46" y="173.68" width="18.6" height="18.6"/><rect class="cls-3" x="546.46" y="195.67" width="18.6" height="18.6"/><rect class="cls-4" x="546.46" y="217.66" width="18.6" height="18.6"/><rect class="cls-1" x="546.46" y="239.66" width="18.6" height="18.6"/><rect class="cls-4" x="546.46" y="261.65" width="18.6" height="18.6"/><rect class="cls-3" x="546.46" y="283.65" width="18.6" height="18.6"/><rect class="cls-4" x="546.46" y="305.64" width="18.6" height="18.6"/><rect class="cls-2" x="546.46" y="327.63" width="18.6" height="18.6"/><rect class="cls-2" x="546.46" y="349.63" width="18.6" height="18.6"/><rect class="cls-3" x="546.46" y="371.62" width="18.6" height="18.6"/><rect class="cls-4" x="546.46" y="393.62" width="18.6" height="18.6"/><rect class="cls-3" x="546.46" y="415.61" width="18.6" height="18.6"/><rect class="cls-4" x="546.2" y="437.6" width="18.6" height="18.6"/><rect class="cls-2" x="546.2" y="481.59" width="18.6" height="18.6"/><rect class="cls-4" x="546.2" y="503.59" width="18.6" height="18.6"/><rect class="cls-4" x="546.2" y="547.58" width="18.6" height="18.6"/><rect class="cls-4" x="546.2" y="569.57" width="18.6" height="18.6"/><rect class="cls-3" x="546.2" y="591.56" width="18.6" height="18.6"/><rect class="cls-4" x="546.2" y="613.56" width="18.6" height="18.6"/><rect class="cls-2" x="546.2" y="657.55" width="18.6" height="18.6"/><rect class="cls-4" x="546.2" y="679.54" width="18.6" height="18.6"/><rect class="cls-5" x="546.2" y="701.53" width="18.6" height="18.6"/><rect class="cls-3" x="546.2" y="723.53" width="18.6" height="18.6"/><rect class="cls-4" x="546.2" y="745.52" width="18.6" height="18.6"/><rect class="cls-3" x="546.2" y="767.52" width="18.6" height="18.6"/><rect class="cls-4" x="570.07" y="129.59" width="18.6" height="18.6"/><rect class="cls-3" x="570.07" y="173.58" width="18.6" height="18.6"/><rect class="cls-4" x="570.07" y="195.58" width="18.6" height="18.6"/><rect class="cls-1" x="570.07" y="217.57" width="18.6" height="18.6"/><rect class="cls-4" x="570.07" y="261.56" width="18.6" height="18.6"/><rect class="cls-4" x="570.07" y="283.55" width="18.6" height="18.6"/><rect class="cls-2" x="570.07" y="327.54" width="18.6" height="18.6"/><rect class="cls-2" x="570.07" y="349.54" width="18.6" height="18.6"/><rect class="cls-4" x="570.07" y="371.53" width="18.6" height="18.6"/><rect class="cls-4" x="570.07" y="393.52" width="18.6" height="18.6"/><rect class="cls-3" x="570.07" y="415.52" width="18.6" height="18.6"/><rect class="cls-4" x="569.81" y="437.51" width="18.6" height="18.6"/><rect class="cls-5" x="569.81" y="459.51" width="18.6" height="18.6"/><rect class="cls-2" x="569.81" y="481.5" width="18.6" height="18.6"/><rect class="cls-4" x="569.81" y="503.49" width="18.6" height="18.6"/><rect class="cls-5" x="569.81" y="525.49" width="18.6" height="18.6"/><rect class="cls-3" x="569.81" y="547.48" width="18.6" height="18.6"/><rect class="cls-1" x="569.81" y="569.48" width="18.6" height="18.6"/><rect class="cls-5" x="569.81" y="591.47" width="18.6" height="18.6"/><rect class="cls-4" x="569.81" y="613.46" width="18.6" height="18.6"/><rect class="cls-1" x="569.81" y="635.46" width="18.6" height="18.6"/><rect class="cls-1" x="569.81" y="657.45" width="18.6" height="18.6"/><rect class="cls-3" x="569.81" y="679.45" width="18.6" height="18.6"/><rect class="cls-4" x="569.81" y="701.44" width="18.6" height="18.6"/><rect class="cls-4" x="569.81" y="723.44" width="18.6" height="18.6"/><rect class="cls-4" x="569.81" y="767.42" width="18.6" height="18.6"/><rect class="cls-1" x="594.31" y="129.69" width="18.6" height="18.6"/><rect class="cls-4" x="594.31" y="151.68" width="18.6" height="18.6"/><rect class="cls-3" x="594.31" y="173.68" width="18.6" height="18.6"/><rect class="cls-1" x="594.31" y="195.67" width="18.6" height="18.6"/><rect class="cls-1" x="594.31" y="217.66" width="18.6" height="18.6"/><rect class="cls-4" x="594.31" y="239.66" width="18.6" height="18.6"/><rect class="cls-4" x="594.31" y="261.65" width="18.6" height="18.6"/><rect class="cls-3" x="594.31" y="283.65" width="18.6" height="18.6"/><rect class="cls-5" x="594.31" y="305.64" width="18.6" height="18.6"/><rect class="cls-4" x="594.31" y="327.63" width="18.6" height="18.6"/><rect class="cls-4" x="594.31" y="349.63" width="18.6" height="18.6"/><rect class="cls-4" x="594.31" y="371.62" width="18.6" height="18.6"/><rect class="cls-1" x="594.31" y="393.62" width="18.6" height="18.6"/><rect class="cls-4" x="594.05" y="437.6" width="18.6" height="18.6"/><rect class="cls-5" x="594.05" y="459.6" width="18.6" height="18.6"/><rect class="cls-4" x="594.05" y="525.58" width="18.6" height="18.6"/><rect class="cls-4" x="594.05" y="547.58" width="18.6" height="18.6"/><rect class="cls-4" x="594.05" y="591.56" width="18.6" height="18.6"/><rect class="cls-3" x="594.05" y="613.56" width="18.6" height="18.6"/><rect class="cls-2" x="594.05" y="635.55" width="18.6" height="18.6"/><rect class="cls-4" x="594.05" y="657.55" width="18.6" height="18.6"/><rect class="cls-1" x="594.05" y="679.54" width="18.6" height="18.6"/><rect class="cls-1" x="594.05" y="723.53" width="18.6" height="18.6"/><rect class="cls-1" x="594.05" y="745.52" width="18.6" height="18.6"/><rect class="cls-1" x="594.05" y="767.52" width="18.6" height="18.6"/><rect class="cls-4" x="617.92" y="129.59" width="18.6" height="18.6"/><rect class="cls-4" x="617.92" y="173.58" width="18.6" height="18.6"/><rect class="cls-3" x="617.92" y="217.57" width="18.6" height="18.6"/><rect class="cls-3" x="617.92" y="239.56" width="18.6" height="18.6"/><rect class="cls-4" x="617.92" y="283.55" width="18.6" height="18.6"/><rect class="cls-1" x="617.92" y="305.55" width="18.6" height="18.6"/><rect class="cls-1" x="617.92" y="327.54" width="18.6" height="18.6"/><rect class="cls-3" x="617.92" y="349.54" width="18.6" height="18.6"/><rect class="cls-4" x="617.92" y="371.53" width="18.6" height="18.6"/><rect class="cls-1" x="617.67" y="459.51" width="18.6" height="18.6"/><rect class="cls-2" x="617.67" y="503.49" width="18.6" height="18.6"/><rect class="cls-2" x="617.67" y="525.49" width="18.6" height="18.6"/><rect class="cls-3" x="617.67" y="547.48" width="18.6" height="18.6"/><rect class="cls-4" x="617.67" y="569.48" width="18.6" height="18.6"/><rect class="cls-2" x="617.67" y="591.47" width="18.6" height="18.6"/><rect class="cls-4" x="617.67" y="613.46" width="18.6" height="18.6"/><rect class="cls-4" x="617.67" y="657.45" width="18.6" height="18.6"/><rect class="cls-4" x="617.67" y="701.44" width="18.6" height="18.6"/><rect class="cls-1" x="617.67" y="723.44" width="18.6" height="18.6"/><rect class="cls-3" x="617.67" y="767.42" width="18.6" height="18.6"/><rect class="cls-1" x="641.8" y="130.27" width="18.6" height="18.6"/><rect class="cls-1" x="641.8" y="152.26" width="18.6" height="18.6"/><rect class="cls-3" x="641.8" y="174.26" width="18.6" height="18.6"/><rect class="cls-4" x="641.8" y="218.24" width="18.6" height="18.6"/><rect class="cls-5" x="641.8" y="240.24" width="18.6" height="18.6"/><rect class="cls-1" x="641.8" y="262.23" width="18.6" height="18.6"/><rect class="cls-3" x="641.8" y="284.23" width="18.6" height="18.6"/><rect class="cls-3" x="641.8" y="328.22" width="18.6" height="18.6"/><rect class="cls-4" x="641.8" y="350.21" width="18.6" height="18.6"/><rect class="cls-2" x="641.8" y="372.2" width="18.6" height="18.6"/><rect class="cls-2" x="641.8" y="394.2" width="18.6" height="18.6"/><rect class="cls-2" x="641.8" y="416.19" width="18.6" height="18.6"/><rect class="cls-4" x="641.54" y="438.19" width="18.6" height="18.6"/><rect class="cls-3" x="641.54" y="460.18" width="18.6" height="18.6"/><rect class="cls-4" x="641.54" y="482.17" width="18.6" height="18.6"/><rect class="cls-3" x="641.54" y="504.17" width="18.6" height="18.6"/><rect class="cls-4" x="641.54" y="526.16" width="18.6" height="18.6"/><rect class="cls-3" x="641.54" y="548.16" width="18.6" height="18.6"/><rect class="cls-4" x="641.54" y="570.15" width="18.6" height="18.6"/><rect class="cls-5" x="641.54" y="614.14" width="18.6" height="18.6"/><rect class="cls-3" x="641.54" y="636.13" width="18.6" height="18.6"/><rect class="cls-3" x="641.54" y="658.13" width="18.6" height="18.6"/><rect class="cls-4" x="641.54" y="680.12" width="18.6" height="18.6"/><rect class="cls-5" x="641.54" y="702.11" width="18.6" height="18.6"/><rect class="cls-4" x="641.54" y="724.11" width="18.6" height="18.6"/><rect class="cls-3" x="641.54" y="746.1" width="18.6" height="18.6"/><rect class="cls-4" x="641.54" y="768.1" width="18.6" height="18.6"/><rect class="cls-3" x="665.41" y="130.17" width="18.6" height="18.6"/><rect class="cls-2" x="665.41" y="152.17" width="18.6" height="18.6"/><rect class="cls-4" x="665.41" y="196.16" width="18.6" height="18.6"/><rect class="cls-5" x="665.41" y="240.15" width="18.6" height="18.6"/><rect class="cls-4" x="665.41" y="262.14" width="18.6" height="18.6"/><rect class="cls-4" x="665.41" y="284.13" width="18.6" height="18.6"/><rect class="cls-4" x="665.41" y="306.13" width="18.6" height="18.6"/><rect class="cls-3" x="665.41" y="328.12" width="18.6" height="18.6"/><rect class="cls-3" x="665.41" y="350.12" width="18.6" height="18.6"/><rect class="cls-3" x="665.41" y="372.11" width="18.6" height="18.6"/><rect class="cls-4" x="665.41" y="394.1" width="18.6" height="18.6"/><rect class="cls-2" x="665.15" y="438.09" width="18.6" height="18.6"/><rect class="cls-4" x="665.15" y="460.09" width="18.6" height="18.6"/><rect class="cls-2" x="665.15" y="482.08" width="18.6" height="18.6"/><rect class="cls-4" x="665.15" y="504.07" width="18.6" height="18.6"/><rect class="cls-4" x="665.15" y="548.06" width="18.6" height="18.6"/><rect class="cls-4" x="665.15" y="592.05" width="18.6" height="18.6"/><rect class="cls-4" x="665.15" y="614.05" width="18.6" height="18.6"/><rect class="cls-4" x="665.15" y="636.04" width="18.6" height="18.6"/><rect class="cls-3" x="665.15" y="658.03" width="18.6" height="18.6"/><rect class="cls-1" x="665.15" y="702.02" width="18.6" height="18.6"/><rect class="cls-1" x="665.15" y="724.02" width="18.6" height="18.6"/><rect class="cls-4" x="665.15" y="746.01" width="18.6" height="18.6"/><rect class="cls-5" x="665.15" y="768" width="18.6" height="18.6"/><rect class="cls-4" x="689.65" y="130.27" width="18.6" height="18.6"/><rect class="cls-3" x="689.65" y="152.26" width="18.6" height="18.6"/><rect class="cls-5" x="689.65" y="174.26" width="18.6" height="18.6"/><rect class="cls-2" x="689.65" y="196.25" width="18.6" height="18.6"/><rect class="cls-2" x="689.65" y="218.24" width="18.6" height="18.6"/><rect class="cls-1" x="689.65" y="240.24" width="18.6" height="18.6"/><rect class="cls-1" x="689.65" y="262.23" width="18.6" height="18.6"/><rect class="cls-1" x="689.65" y="284.23" width="18.6" height="18.6"/><rect class="cls-1" x="689.65" y="306.22" width="18.6" height="18.6"/><rect class="cls-1" x="689.65" y="328.22" width="18.6" height="18.6"/><rect class="cls-4" x="689.65" y="350.21" width="18.6" height="18.6"/><rect class="cls-1" x="689.65" y="372.2" width="18.6" height="18.6"/><rect class="cls-5" x="689.65" y="394.2" width="18.6" height="18.6"/><rect class="cls-4" x="689.39" y="504.17" width="18.6" height="18.6"/><rect class="cls-1" x="689.39" y="526.16" width="18.6" height="18.6"/><rect class="cls-1" x="689.39" y="548.16" width="18.6" height="18.6"/><rect class="cls-4" x="689.39" y="570.15" width="18.6" height="18.6"/><rect class="cls-3" x="689.39" y="592.14" width="18.6" height="18.6"/><rect class="cls-3" x="689.39" y="614.14" width="18.6" height="18.6"/><rect class="cls-4" x="689.39" y="636.13" width="18.6" height="18.6"/><rect class="cls-4" x="689.39" y="658.13" width="18.6" height="18.6"/><rect class="cls-4" x="689.39" y="680.12" width="18.6" height="18.6"/><rect class="cls-3" x="689.39" y="724.11" width="18.6" height="18.6"/><rect class="cls-3" x="689.39" y="746.1" width="18.6" height="18.6"/><rect class="cls-3" x="689.39" y="768.1" width="18.6" height="18.6"/><rect class="cls-2" x="1027.12" y="132.4" width="18.6" height="18.6"/><rect class="cls-2" x="1027.12" y="154.39" width="18.6" height="18.6"/><rect class="cls-2" x="1027.12" y="176.39" width="18.6" height="18.6"/><rect class="cls-2" x="1027.12" y="198.38" width="18.6" height="18.6"/><rect class="cls-2" x="1027.12" y="220.38" width="18.6" height="18.6"/><rect class="cls-2" x="1027.12" y="242.37" width="18.6" height="18.6"/><rect class="cls-2" x="1027.12" y="264.36" width="18.6" height="18.6"/><rect class="cls-2" x="1027.12" y="286.36" width="18.6" height="18.6"/><rect class="cls-2" x="1027.12" y="308.35" width="18.6" height="18.6"/><rect class="cls-2" x="1027.12" y="330.35" width="18.6" height="18.6"/><rect class="cls-2" x="1027.12" y="352.34" width="18.6" height="18.6"/><rect class="cls-2" x="1027.12" y="374.33" width="18.6" height="18.6"/><rect class="cls-2" x="1027.12" y="396.33" width="18.6" height="18.6"/><rect class="cls-2" x="1027.12" y="418.32" width="18.6" height="18.6"/><rect class="cls-2" x="1026.86" y="440.32" width="18.6" height="18.6"/><rect class="cls-2" x="1026.86" y="462.31" width="18.6" height="18.6"/><rect class="cls-2" x="1026.86" y="484.31" width="18.6" height="18.6"/><rect class="cls-2" x="1026.86" y="506.3" width="18.6" height="18.6"/><rect class="cls-2" x="1026.86" y="528.29" width="18.6" height="18.6"/><rect class="cls-2" x="1026.86" y="550.29" width="18.6" height="18.6"/><rect class="cls-2" x="1026.86" y="572.28" width="18.6" height="18.6"/><rect class="cls-2" x="1026.86" y="594.28" width="18.6" height="18.6"/><rect class="cls-2" x="1026.86" y="616.27" width="18.6" height="18.6"/><rect class="cls-2" x="1026.86" y="638.26" width="18.6" height="18.6"/><rect class="cls-2" x="1026.86" y="660.26" width="18.6" height="18.6"/><rect class="cls-2" x="1026.86" y="682.25" width="18.6" height="18.6"/><rect class="cls-2" x="1026.86" y="704.25" width="18.6" height="18.6"/><rect class="cls-2" x="1026.86" y="726.24" width="18.6" height="18.6"/><rect class="cls-2" x="1026.86" y="748.23" width="18.6" height="18.6"/><rect class="cls-2" x="1026.86" y="770.23" width="18.6" height="18.6"/><rect class="cls-5" x="1050.73" y="132.31" width="18.6" height="18.6"/><rect class="cls-5" x="1050.73" y="154.3" width="18.6" height="18.6"/><rect class="cls-5" x="1050.73" y="176.29" width="18.6" height="18.6"/><rect class="cls-5" x="1050.73" y="198.29" width="18.6" height="18.6"/><rect class="cls-5" x="1050.73" y="220.28" width="18.6" height="18.6"/><rect class="cls-5" x="1050.73" y="242.28" width="18.6" height="18.6"/><rect class="cls-5" x="1050.73" y="264.27" width="18.6" height="18.6"/><rect class="cls-5" x="1050.73" y="286.26" width="18.6" height="18.6"/><rect class="cls-5" x="1050.73" y="308.26" width="18.6" height="18.6"/><rect class="cls-5" x="1050.73" y="330.25" width="18.6" height="18.6"/><rect class="cls-5" x="1050.73" y="352.25" width="18.6" height="18.6"/><rect class="cls-5" x="1050.73" y="374.24" width="18.6" height="18.6"/><rect class="cls-5" x="1050.73" y="396.24" width="18.6" height="18.6"/><rect class="cls-5" x="1050.73" y="418.23" width="18.6" height="18.6"/><rect class="cls-5" x="1050.47" y="440.22" width="18.6" height="18.6"/><rect class="cls-5" x="1050.47" y="462.22" width="18.6" height="18.6"/><rect class="cls-5" x="1050.47" y="484.21" width="18.6" height="18.6"/><rect class="cls-5" x="1050.47" y="506.21" width="18.6" height="18.6"/><rect class="cls-5" x="1050.47" y="528.2" width="18.6" height="18.6"/><rect class="cls-5" x="1050.47" y="550.19" width="18.6" height="18.6"/><rect class="cls-5" x="1050.47" y="572.19" width="18.6" height="18.6"/><rect class="cls-5" x="1050.47" y="594.18" width="18.6" height="18.6"/><rect class="cls-5" x="1050.47" y="616.18" width="18.6" height="18.6"/><rect class="cls-5" x="1050.47" y="638.17" width="18.6" height="18.6"/><rect class="cls-5" x="1050.47" y="660.16" width="18.6" height="18.6"/><rect class="cls-5" x="1050.47" y="682.16" width="18.6" height="18.6"/><rect class="cls-5" x="1050.47" y="704.15" width="18.6" height="18.6"/><rect class="cls-5" x="1050.47" y="726.15" width="18.6" height="18.6"/><rect class="cls-5" x="1050.47" y="748.14" width="18.6" height="18.6"/><rect class="cls-5" x="1050.47" y="770.14" width="18.6" height="18.6"/><rect class="cls-3" x="1074.6" y="132.98" width="18.6" height="18.6"/><rect class="cls-3" x="1074.6" y="154.97" width="18.6" height="18.6"/><rect class="cls-3" x="1074.6" y="176.97" width="18.6" height="18.6"/><rect class="cls-3" x="1074.6" y="198.96" width="18.6" height="18.6"/><rect class="cls-3" x="1074.6" y="220.96" width="18.6" height="18.6"/><rect class="cls-3" x="1074.6" y="242.95" width="18.6" height="18.6"/><rect class="cls-3" x="1074.6" y="264.94" width="18.6" height="18.6"/><rect class="cls-3" x="1074.6" y="286.94" width="18.6" height="18.6"/><rect class="cls-3" x="1074.6" y="308.93" width="18.6" height="18.6"/><rect class="cls-3" x="1074.6" y="330.93" width="18.6" height="18.6"/><rect class="cls-3" x="1074.6" y="352.92" width="18.6" height="18.6"/><rect class="cls-3" x="1074.6" y="374.92" width="18.6" height="18.6"/><rect class="cls-3" x="1074.6" y="396.91" width="18.6" height="18.6"/><rect class="cls-3" x="1074.6" y="418.9" width="18.6" height="18.6"/><rect class="cls-3" x="1074.34" y="440.9" width="18.6" height="18.6"/><rect class="cls-3" x="1074.34" y="462.89" width="18.6" height="18.6"/><rect class="cls-3" x="1074.34" y="484.89" width="18.6" height="18.6"/><rect class="cls-3" x="1074.34" y="506.88" width="18.6" height="18.6"/><rect class="cls-3" x="1074.34" y="528.87" width="18.6" height="18.6"/><rect class="cls-3" x="1074.34" y="550.87" width="18.6" height="18.6"/><rect class="cls-3" x="1074.34" y="572.86" width="18.6" height="18.6"/><rect class="cls-3" x="1074.34" y="594.86" width="18.6" height="18.6"/><rect class="cls-3" x="1074.34" y="616.85" width="18.6" height="18.6"/><rect class="cls-3" x="1074.34" y="638.84" width="18.6" height="18.6"/><rect class="cls-3" x="1074.34" y="660.84" width="18.6" height="18.6"/><rect class="cls-3" x="1074.34" y="682.83" width="18.6" height="18.6"/><rect class="cls-3" x="1074.34" y="704.83" width="18.6" height="18.6"/><rect class="cls-3" x="1074.34" y="726.82" width="18.6" height="18.6"/><rect class="cls-3" x="1074.34" y="748.82" width="18.6" height="18.6"/><rect class="cls-3" x="1074.34" y="770.81" width="18.6" height="18.6"/><rect class="cls-4" x="1098.21" y="132.89" width="18.6" height="18.6"/><rect class="cls-4" x="1098.21" y="154.88" width="18.6" height="18.6"/><rect class="cls-4" x="1098.21" y="176.87" width="18.6" height="18.6"/><rect class="cls-4" x="1098.21" y="198.87" width="18.6" height="18.6"/><rect class="cls-4" x="1098.21" y="220.86" width="18.6" height="18.6"/><rect class="cls-4" x="1098.21" y="242.86" width="18.6" height="18.6"/><rect class="cls-4" x="1098.21" y="264.85" width="18.6" height="18.6"/><rect class="cls-4" x="1098.21" y="286.85" width="18.6" height="18.6"/><rect class="cls-4" x="1098.21" y="308.84" width="18.6" height="18.6"/><rect class="cls-4" x="1098.21" y="330.83" width="18.6" height="18.6"/><rect class="cls-4" x="1098.21" y="352.83" width="18.6" height="18.6"/><rect class="cls-4" x="1098.21" y="374.82" width="18.6" height="18.6"/><rect class="cls-4" x="1098.21" y="396.82" width="18.6" height="18.6"/><rect class="cls-4" x="1098.21" y="418.81" width="18.6" height="18.6"/><rect class="cls-4" x="1097.95" y="440.8" width="18.6" height="18.6"/><rect class="cls-4" x="1097.95" y="462.8" width="18.6" height="18.6"/><rect class="cls-4" x="1097.95" y="484.79" width="18.6" height="18.6"/><rect class="cls-4" x="1097.95" y="506.79" width="18.6" height="18.6"/><rect class="cls-4" x="1097.95" y="528.78" width="18.6" height="18.6"/><rect class="cls-4" x="1097.95" y="550.77" width="18.6" height="18.6"/><rect class="cls-4" x="1097.95" y="572.77" width="18.6" height="18.6"/><rect class="cls-4" x="1097.95" y="594.76" width="18.6" height="18.6"/><rect class="cls-4" x="1097.95" y="616.76" width="18.6" height="18.6"/><rect class="cls-4" x="1097.95" y="638.75" width="18.6" height="18.6"/><rect class="cls-4" x="1097.95" y="660.75" width="18.6" height="18.6"/><rect class="cls-4" x="1097.95" y="682.74" width="18.6" height="18.6"/><rect class="cls-4" x="1097.95" y="704.73" width="18.6" height="18.6"/><rect class="cls-4" x="1097.95" y="726.73" width="18.6" height="18.6"/><rect class="cls-4" x="1097.95" y="748.72" width="18.6" height="18.6"/><rect class="cls-4" x="1097.95" y="770.72" width="18.6" height="18.6"/><rect class="cls-1" x="1122.46" y="132.98" width="18.6" height="18.6"/><rect class="cls-1" x="1122.46" y="154.97" width="18.6" height="18.6"/><rect class="cls-1" x="1122.46" y="176.97" width="18.6" height="18.6"/><rect class="cls-1" x="1122.46" y="198.96" width="18.6" height="18.6"/><rect class="cls-1" x="1122.46" y="220.96" width="18.6" height="18.6"/><rect class="cls-1" x="1122.46" y="242.95" width="18.6" height="18.6"/><rect class="cls-1" x="1122.46" y="264.94" width="18.6" height="18.6"/><rect class="cls-1" x="1122.46" y="286.94" width="18.6" height="18.6"/><rect class="cls-1" x="1122.46" y="308.93" width="18.6" height="18.6"/><rect class="cls-1" x="1122.46" y="330.93" width="18.6" height="18.6"/><rect class="cls-1" x="1122.46" y="352.92" width="18.6" height="18.6"/><rect class="cls-1" x="1122.46" y="374.92" width="18.6" height="18.6"/><rect class="cls-1" x="1122.46" y="396.91" width="18.6" height="18.6"/><rect class="cls-1" x="1122.46" y="418.9" width="18.6" height="18.6"/><rect class="cls-1" x="1122.2" y="440.9" width="18.6" height="18.6"/><rect class="cls-1" x="1122.2" y="462.89" width="18.6" height="18.6"/><rect class="cls-1" x="1122.2" y="484.89" width="18.6" height="18.6"/><rect class="cls-1" x="1122.2" y="506.88" width="18.6" height="18.6"/><rect class="cls-1" x="1122.2" y="528.87" width="18.6" height="18.6"/><rect class="cls-1" x="1122.2" y="550.87" width="18.6" height="18.6"/><rect class="cls-1" x="1122.2" y="572.86" width="18.6" height="18.6"/><rect class="cls-1" x="1122.2" y="594.86" width="18.6" height="18.6"/><rect class="cls-1" x="1122.2" y="616.85" width="18.6" height="18.6"/><rect class="cls-1" x="1122.2" y="638.84" width="18.6" height="18.6"/><rect class="cls-1" x="1122.2" y="660.84" width="18.6" height="18.6"/><rect class="cls-1" x="1122.2" y="682.83" width="18.6" height="18.6"/><rect class="cls-1" x="1122.2" y="704.83" width="18.6" height="18.6"/><rect class="cls-1" x="1122.2" y="726.82" width="18.6" height="18.6"/><rect class="cls-1" x="1122.2" y="748.82" width="18.6" height="18.6"/><rect class="cls-1" x="1122.2" y="770.81" width="18.6" height="18.6"/><rect class="cls-3" x="979.12" y="132.05" width="18.6" height="18.6"/><rect class="cls-3" x="979.12" y="154.04" width="18.6" height="18.6"/><rect class="cls-3" x="979.12" y="176.04" width="18.6" height="18.6"/><rect class="cls-3" x="979.12" y="198.03" width="18.6" height="18.6"/><rect class="cls-4" x="979.12" y="220.03" width="18.6" height="18.6"/><rect class="cls-1" x="979.12" y="242.02" width="18.6" height="18.6"/><rect class="cls-4" x="979.12" y="264.01" width="18.6" height="18.6"/><rect class="cls-3" x="979.12" y="286.01" width="18.6" height="18.6"/><rect class="cls-4" x="979.12" y="308" width="18.6" height="18.6"/><rect class="cls-2" x="979.12" y="330" width="18.6" height="18.6"/><rect class="cls-2" x="979.12" y="351.99" width="18.6" height="18.6"/><rect class="cls-3" x="979.12" y="373.98" width="18.6" height="18.6"/><rect class="cls-4" x="979.12" y="395.98" width="18.6" height="18.6"/><rect class="cls-3" x="979.12" y="417.97" width="18.6" height="18.6"/><rect class="cls-4" x="978.86" y="439.97" width="18.6" height="18.6"/><rect class="cls-2" x="978.86" y="483.95" width="18.6" height="18.6"/><rect class="cls-4" x="978.86" y="505.95" width="18.6" height="18.6"/><rect class="cls-4" x="978.86" y="549.94" width="18.6" height="18.6"/><rect class="cls-4" x="978.86" y="571.93" width="18.6" height="18.6"/><rect class="cls-3" x="978.86" y="593.93" width="18.6" height="18.6"/><rect class="cls-4" x="978.86" y="615.92" width="18.6" height="18.6"/><rect class="cls-2" x="978.86" y="659.91" width="18.6" height="18.6"/><rect class="cls-4" x="978.86" y="681.9" width="18.6" height="18.6"/><rect class="cls-5" x="978.86" y="703.9" width="18.6" height="18.6"/><rect class="cls-3" x="978.86" y="725.89" width="18.6" height="18.6"/><rect class="cls-4" x="978.86" y="747.88" width="18.6" height="18.6"/><rect class="cls-3" x="978.86" y="769.88" width="18.6" height="18.6"/><rect class="cls-4" x="1002.73" y="131.96" width="18.6" height="18.6"/><rect class="cls-3" x="1002.73" y="175.94" width="18.6" height="18.6"/><rect class="cls-4" x="1002.73" y="197.94" width="18.6" height="18.6"/><rect class="cls-1" x="1002.73" y="219.93" width="18.6" height="18.6"/><rect class="cls-4" x="1002.73" y="263.92" width="18.6" height="18.6"/><rect class="cls-4" x="1002.73" y="285.91" width="18.6" height="18.6"/><rect class="cls-2" x="1002.73" y="329.9" width="18.6" height="18.6"/><rect class="cls-2" x="1002.73" y="351.9" width="18.6" height="18.6"/><rect class="cls-4" x="1002.73" y="373.89" width="18.6" height="18.6"/><rect class="cls-4" x="1002.73" y="395.88" width="18.6" height="18.6"/><rect class="cls-3" x="1002.73" y="417.88" width="18.6" height="18.6"/><rect class="cls-4" x="1002.47" y="439.87" width="18.6" height="18.6"/><rect class="cls-5" x="1002.47" y="461.87" width="18.6" height="18.6"/><rect class="cls-2" x="1002.47" y="483.86" width="18.6" height="18.6"/><rect class="cls-4" x="1002.47" y="505.86" width="18.6" height="18.6"/><rect class="cls-5" x="1002.47" y="527.85" width="18.6" height="18.6"/><rect class="cls-3" x="1002.47" y="549.84" width="18.6" height="18.6"/><rect class="cls-1" x="1002.47" y="571.84" width="18.6" height="18.6"/><rect class="cls-5" x="1002.47" y="593.83" width="18.6" height="18.6"/><rect class="cls-4" x="1002.47" y="615.83" width="18.6" height="18.6"/><rect class="cls-1" x="1002.47" y="637.82" width="18.6" height="18.6"/><rect class="cls-1" x="1002.47" y="659.81" width="18.6" height="18.6"/><rect class="cls-3" x="1002.47" y="681.81" width="18.6" height="18.6"/><rect class="cls-4" x="1002.47" y="703.8" width="18.6" height="18.6"/><rect class="cls-4" x="1002.47" y="725.8" width="18.6" height="18.6"/><rect class="cls-4" x="1002.47" y="769.78" width="18.6" height="18.6"/><text class="cls-6" transform="translate(148.49 848.39)">Data</text><text class="cls-6" transform="translate(503.56 846.45)">Analytics</text><text class="cls-6" transform="translate(947.98 848.39)">Decision</text></svg>