<svg height="512" viewBox="0 0 64 64" width="512" xmlns="http://www.w3.org/2000/svg"><g id="Solar_Power-2" data-name="Solar Power"><path d="m49 57h-27v-2h26v-17h2v18a1 1 0 0 1 -1 1z" fill="#1a6fb0"/><path d="m28 32 .32 6h-8.32v-6z" fill="#46f8ff"/><path d="m18 54h4v4h-4z" fill="#e0e0e2"/><path d="m14 51h4v10h-4z" fill="#3e3d42"/><path d="m12 32v6h-8.32l.32-6z" fill="#46f8ff"/><path d="m12 45v6h-9l.32-6z" fill="#46f8ff"/><path d="m12 38h8v7h-8z" fill="#46f8ff"/><path d="m28.68 45 .32 6h-9v-6z" fill="#46f8ff"/><path d="m20 45v6h-2-4-2v-6z" fill="#00eed1"/><path d="m12 38v7h-8.68l.36-7z" fill="#00eed1"/><path d="m12 32h8v6h-8z" fill="#00eed1"/><path d="m28.32 38 .36 7h-8.68v-7z" fill="#00eed1"/><path d="m47 34h4v4h-4z" fill="#3e3d42"/><circle cx="16" cy="13" fill="#ffda44" r="6"/><rect fill="#006df0" height="16" rx="2" width="24" x="37" y="18"/><path d="m61 20a14.041 14.041 0 0 1 -14 14h-8a2.006 2.006 0 0 1 -2-2v-12a2.006 2.006 0 0 1 2-2h20a2.006 2.006 0 0 1 2 2z" fill="#2488ff"/><path d="m46 26h3v-5z" fill="#ff5023"/><path d="m49 31 3-5h-3z" fill="#ff5023"/><g fill="#ff9811"><path d="m15 2h2v2h-2z"/><path d="m22.071 4.929h2v2h-2z" transform="matrix(.707 -.707 .707 .707 2.565 18.05)"/><path d="m25 12h2v2h-2z"/><path d="m22.071 19.071h2v2h-2z" transform="matrix(.707 -.707 .707 .707 -7.435 22.192)"/><path d="m15 22h2v2h-2z"/><path d="m7.929 19.071h2v2h-2z" transform="matrix(.707 -.707 .707 .707 -11.577 12.192)"/><path d="m5 12h2v2h-2z"/><path d="m7.929 4.929h2v2h-2z" transform="matrix(.707 -.707 .707 .707 -1.577 8.05)"/></g><path d="m47 34h4v1h-4z" fill="#2d2d30"/><path d="m14 51h4v1h-4z" fill="#2d2d30"/><path d="m11 60h10v2h-10z" fill="#231f20"/><path d="m44 37h10v2h-10z" fill="#231f20"/><path d="m12 45v6h.308l6.923-6z" fill="#66f5e3"/><path d="m3.32 45-.32 6h1.154l6.923-6z" fill="#90fbff"/><path d="m20 38v6.4l7.385-6.4z" fill="#66f5e3"/><path d="m20 32v5.4l6.231-5.4z" fill="#90fbff"/><path d="m12 32v5.4l6.231-5.4z" fill="#66f5e3"/><path d="m4 32-.302 5.662 6.533-5.662z" fill="#90fbff"/><path d="m3.68 38-.352 6.849 7.903-6.849z" fill="#66f5e3"/><path d="m12 38v6.4l7.385-6.4z" fill="#90fbff"/><path d="m20 45v5.4l6.231-5.4z" fill="#90fbff"/></g></svg>