<svg id="flat" height="512" viewBox="0 0 512 512" width="512" xmlns="http://www.w3.org/2000/svg"><path d="m80 112-56 192v48h104v-240z" fill="#acc221"/><path d="m432 112h-48v240h104v-48z" fill="#acc221"/><path d="m104 16h304v40h-304z" fill="#acc221"/><path d="m104 56v296h48v-240h80v240h48v-240h80v240h48v-296z" fill="#b9cd2a"/><path d="m232 160v192h-80v-176l9.12-6.08a30.8532 30.8532 0 0 1 30.88-1.92 30.82429 30.82429 0 0 0 30.88-1.92z" fill="#6cdbe6"/><path d="m360 176v176h-80v-192l9.12 6.08a30.853 30.853 0 0 0 30.88 1.92 30.82428 30.82428 0 0 1 30.88 1.92z" fill="#6cdbe6"/><path d="m347.56826 336a16.00008 16.00008 0 0 0 8.23193-2.28011l19.05-11.43a29.74423 29.74423 0 0 1 33.14981 1.71011 26.66661 26.66661 0 0 0 32 0 26.66661 26.66661 0 0 1 32 0l16 12v152h-464v-152l16-12a26.66661 26.66661 0 0 1 32 0 26.66661 26.66661 0 0 0 32 0 29.74423 29.74423 0 0 1 33.14982-1.71009l19.05 11.43a16.00008 16.00008 0 0 0 8.23192 2.28009h57.62717a23.99993 23.99993 0 0 0 16.9705-7.02941 24 24 0 0 1 33.94112 0 23.99993 23.99993 0 0 0 16.97056 7.02941z" fill="#9ce6ed"/><path d="m171.5625 398.65625-12-8a13.60008 13.60008 0 0 0 -15.125 0 29.5539 29.5539 0 0 1 -32.875 0 13.59827 13.59827 0 0 0 -15.125 0l-12 8-8.875-13.3125 12-8a29.55481 29.55481 0 0 1 32.875 0 13.59827 13.59827 0 0 0 15.125 0 29.5539 29.5539 0 0 1 32.875 0l12 8z" fill="#bbedf2"/><path d="m251.56249 454.65625-12-8a13.60008 13.60008 0 0 0 -15.125 0 29.55389 29.55389 0 0 1 -32.875 0 13.59827 13.59827 0 0 0 -15.125 0l-12 8-8.875-13.3125 12-8a29.55479 29.55479 0 0 1 32.875 0 13.59827 13.59827 0 0 0 15.125 0 29.5539 29.5539 0 0 1 32.875 0l12 8z" fill="#bbedf2"/><path d="m355.56249 398.65625-12-8a13.60008 13.60008 0 0 0 -15.125 0 29.5539 29.5539 0 0 1 -32.875 0 13.59827 13.59827 0 0 0 -15.125 0l-12 8-8.875-13.3125 12-8a29.55481 29.55481 0 0 1 32.875 0 13.59827 13.59827 0 0 0 15.125 0 29.5539 29.5539 0 0 1 32.875 0l12 8z" fill="#bbedf2"/><path d="m435.56249 454.65625-12-8a13.60008 13.60008 0 0 0 -15.125 0 29.5539 29.5539 0 0 1 -32.875 0 13.59827 13.59827 0 0 0 -15.125 0l-12 8-8.875-13.3125 12-8a29.55481 29.55481 0 0 1 32.875 0 13.59827 13.59827 0 0 0 15.125 0 29.5539 29.5539 0 0 1 32.875 0l12 8z" fill="#bbedf2"/><g fill="#9ce6ed"><path d="m184 232h16v16h-16z"/><path d="m184 264h16v48h-16z"/><path d="m312 192h16v16h-16z"/><path d="m312 224h16v40h-16z"/><path d="m312 280h16v32h-16z"/></g><path d="m152 16h32v40h-32z" fill="#a2ba18"/><path d="m240 16h32v40h-32z" fill="#a2ba18"/><path d="m328 16h32v40h-32z" fill="#a2ba18"/></svg>