<?xml version="1.0" encoding="iso-8859-1"?>
<!-- Generator: Adobe Illustrator 19.0.0, SVG Export Plug-In . SVG Version: 6.00 Build 0)  -->
<svg xmlns="http://www.w3.org/2000/svg" xmlns:xlink="http://www.w3.org/1999/xlink" version="1.1" id="Layer_1" x="0px" y="0px" viewBox="0 0 512.062 512.062" style="enable-background:new 0 0 512.062 512.062;" xml:space="preserve" width="512" height="512">
<g>
	<polygon style="fill:#FFA725;" points="415.6,145.031 415.6,30.031 319.2,30.031 264.2,145.031  "/>
	<polygon style="fill:#FF8B2A;" points="319.2,145.031 319.2,30.031 256,30.031 216,145.031  "/>
	<polygon style="fill:#FFA725;" points="256,145.031 256,30.031 192.8,30.031 152.8,145.031  "/>
	<rect x="96.399" y="30.031" style="fill:#FFC320;" width="96.401" height="115"/>
	<polygon style="fill:#FFC320;" points="415.6,105.031 319.2,105.031 264.2,382.031 415.6,382.031  "/>
	<polygon style="fill:#FFA725;" points="256,105.031 216,382.031 319.2,382.031 319.2,105.031  "/>
	<polygon style="fill:#FFC320;" points="192.8,105.031 152.8,382.031 256,382.031 256,105.031  "/>
	<rect x="96.399" y="105.031" style="fill:#FFD567;" width="96.401" height="277"/>
	<polygon style="fill:#FFE7AD;" points="0,0.031 0,325.517 126.4,385.517 126.4,0.031  "/>
	<polygon style="fill:#FFE7AD;" points="385.6,0.031 385.6,385.517 512,325.517 512,0.031  "/>
	<path style="fill:#1F90D8;" d="M512.062,325.517h-15c-18.102,0-34.794-6.02-48.2-16.156c-13.406,10.137-30.098,16.156-48.2,16.156   s-34.794-6.02-48.2-16.156c-13.406,10.137-30.098,16.156-48.2,16.156c-18.102,0-34.794-6.02-48.2-16.156l-40,45.578l40,123.835   l256-60V325.517z"/>
	<path style="fill:#26ABFF;" d="M207.862,325.517c-18.102,0-34.794-6.02-48.2-16.156c-13.406,10.137-30.098,16.156-48.2,16.156   s-34.794-6.02-48.2-16.156c-13.406,10.137-30.098,16.156-48.2,16.156h-15v93.257l256,60V309.361   C242.656,319.497,225.964,325.517,207.862,325.517z"/>
	<path style="fill:#4CBEFE;" d="M512.062,418.774h-15c-18.102,0-34.794-6.02-48.2-16.156c-13.406,10.137-30.098,16.156-48.2,16.156   s-34.794-6.02-48.2-16.156c-13.406,10.137-30.098,16.156-48.2,16.156c-18.102,0-34.794-6.02-48.2-16.156l-40,54.707l40,54.707h256   V418.774z"/>
	<path style="fill:#71D1FE;" d="M207.862,418.774c-18.102,0-34.794-6.02-48.2-16.156c-13.406,10.137-30.098,16.156-48.2,16.156   s-34.794-6.02-48.2-16.156c-13.406,10.137-30.098,16.156-48.2,16.156h-15v93.257h256V402.618   C242.656,412.754,225.964,418.774,207.862,418.774z"/>
</g>















</svg>
