<svg id="Capa_1" enable-background="new 0 0 512.108 512.108" height="512" viewBox="0 0 512.108 512.108" width="512" xmlns="http://www.w3.org/2000/svg"><g><g><g><path d="m417.936 463.203h-4.915c-21.728 0-39.342-17.614-39.342-39.342v-21.945l41.799-10 41.799 10v21.945c0 21.728-17.614 39.342-39.341 39.342z" fill="#bbd0d5"/><path d="m99.196 463.203h-4.915c-21.728 0-39.342-17.614-39.342-39.342v-21.945l41.799-10 41.799 10v21.945c.001 21.728-17.613 39.342-39.341 39.342z" fill="#e2e9ee"/></g><g><g><path d="m475.346 401.584h-438.584c-20.303 0-36.762-16.459-36.762-36.762v-279.154c0-20.303 16.459-36.762 36.762-36.762h438.584c20.303 0 36.762 16.459 36.762 36.762v279.154c0 20.303-16.459 36.762-36.762 36.762z" fill="#4e6da0"/><path d="m475.346 48.906h-219.292v352.678h219.292c20.303 0 36.762-16.459 36.762-36.762v-279.154c0-20.303-16.459-36.762-36.762-36.762z" fill="#2e3e6e"/></g><g><path d="m0 289.203h512.108v30h-512.108z" fill="#fbf4f4"/><path d="m256.054 289.203h256.054v30h-256.054z" fill="#e2e9ee"/></g></g></g><g><path d="m206.763 244.396h-144.094c-8.284 0-15-6.716-15-15v-94.762c0-8.284 6.716-15 15-15h144.094c8.284 0 15 6.716 15 15v94.762c0 8.284-6.716 15-15 15z" fill="#8fd5c1"/><path d="m432.379 241.453c-8.284 0-15-6.716-15-15v-55.99c0-7.963-6.478-14.442-14.442-14.442s-14.442 6.479-14.442 14.442v26.547c0 24.505-19.936 44.442-44.442 44.442s-44.442-19.937-44.442-44.442v-55.989c0-8.284 6.716-15 15-15s15 6.716 15 15v55.989c0 7.963 6.479 14.442 14.442 14.442s14.442-6.479 14.442-14.442v-26.547c0-24.505 19.936-44.442 44.442-44.442 24.505 0 44.442 19.936 44.442 44.442v55.99c0 8.284-6.716 15-15 15z" fill="#fbf4f4"/></g></g></svg>