<?xml version="1.0" encoding="iso-8859-1"?>
<!-- Generator: Adobe Illustrator 19.0.0, SVG Export Plug-In . SVG Version: 6.00 Build 0)  -->
<svg version="1.1" id="Capa_1" xmlns="http://www.w3.org/2000/svg" xmlns:xlink="http://www.w3.org/1999/xlink" x="0px" y="0px"
	 viewBox="0 0 464 464" style="enable-background:new 0 0 464 464;" xml:space="preserve">
<path style="fill:#999999;" d="M0,160h32v184H0V160z"/>
<path style="fill:#666666;" d="M32,232h32v40H32V232z"/>
<g>
	<path style="fill:#999999;" d="M432,160v32h-32v-56H192l-64,24H64v184h64l64,48h168l40-32v-48h32v32h16c8.837,0,16-7.163,16-16V176
		c0-8.837-7.163-16-16-16H432z"/>
	<path style="fill:#999999;" d="M360,104h-96h-40V72h136V104z"/>
</g>
<path style="fill:#666666;" d="M264,104h56v32h-56V104z"/>
<path style="fill:#F8CF26;" d="M248,176h64l-32,56h40L216,344l40-88h-32L248,176z"/>
<g>
	<path style="fill:#808080;" d="M128,160v184l64,48V136L128,160z"/>
	<path style="fill:#808080;" d="M400,136v224l-40,32V136H400z"/>
</g>
<path style="fill:#666666;" d="M400,192h32v120h-32V192z"/>
<g>
</g>
<g>
</g>
<g>
</g>
<g>
</g>
<g>
</g>
<g>
</g>
<g>
</g>
<g>
</g>
<g>
</g>
<g>
</g>
<g>
</g>
<g>
</g>
<g>
</g>
<g>
</g>
<g>
</g>
</svg>
