<?xml version="1.0" encoding="iso-8859-1"?>
<!-- Generator: Adobe Illustrator 19.0.0, SVG Export Plug-In . SVG Version: 6.00 Build 0)  -->
<svg version="1.1" id="Capa_1" xmlns="http://www.w3.org/2000/svg" xmlns:xlink="http://www.w3.org/1999/xlink" x="0px" y="0px"
	 viewBox="0 0 512 512" style="enable-background:new 0 0 512 512;" xml:space="preserve">
<path style="fill:#FEDB41;" d="M497,392c8.401,0,15,6.599,15,15v90c0,8.399-6.599,15-15,15H13.801c-5.18-0.518-8.599-3.09-9.3-4.501
	C3.587,507.499,0,502.561,0,497.3c0-0.3,0-0.3,0-0.3V15C0,6.599,6.599,0,15,0h90c8.401,0,15,6.599,15,15v46l-15.601,13.799L120,91
	v30l-15.601,16.199L120,151v30l-16.8,15.599L120,211v30l-18.6,12.599L120,271v30l-21.301,11.999L120,331v31l-30,19.499L120,392H497z
	"/>
<path style="fill:#FCBF29;" d="M512,407v90c0,8.399-6.599,15-15,15H13.801c-5.18-0.518-8.599-3.09-9.3-4.501L120,392h377
	C505.401,392,512,398.599,512,407z"/>
<g>
	<path style="fill:#FE9923;" d="M120,91H75c-8.291,0-15-6.709-15-15s6.709-15,15-15h45V91z"/>
	<path style="fill:#FE9923;" d="M120,151H75c-8.291,0-15-6.709-15-15s6.709-15,15-15h45V151z"/>
	<path style="fill:#FE9923;" d="M120,211H75c-8.291,0-15-6.709-15-15s6.709-15,15-15h45V211z"/>
	<path style="fill:#FE9923;" d="M120,271H75c-8.291,0-15-6.709-15-15s6.709-15,15-15h45V271z"/>
	<path style="fill:#FE9923;" d="M120,331H75c-8.291,0-15-6.709-15-15s6.709-15,15-15h45V331z"/>
	<path style="fill:#FE9923;" d="M120,392H75c-8.291,0-15-6.709-15-15s6.709-15,15-15h45V392z"/>
</g>
<g>
	<path style="fill:#E5741A;" d="M436,452c-8.291,0-15-6.709-15-15v-45h30v45C451,445.291,444.291,452,436,452z"/>
	<path style="fill:#E5741A;" d="M376,452c-8.291,0-15-6.709-15-15v-45h30v45C391,445.291,384.291,452,376,452z"/>
	<path style="fill:#E5741A;" d="M316,452c-8.291,0-15-6.709-15-15v-45h30v45C331,445.291,324.291,452,316,452z"/>
	<path style="fill:#E5741A;" d="M256,452c-8.291,0-15-6.709-15-15v-45h30v45C271,445.291,264.291,452,256,452z"/>
	<path style="fill:#E5741A;" d="M196,452c-8.291,0-15-6.709-15-15v-45h30v45C211,445.291,204.291,452,196,452z"/>
	<path style="fill:#E5741A;" d="M135,452c-8.291,0-15-6.709-15-15v-45h30v45C150,445.291,143.291,452,135,452z"/>
</g>
<path style="fill:#4DBAEE;" d="M478.9,72.7l-11.7,35.698l-150.599,110.7L316,218.8L171.099,112.899L152.8,72.7
	c1.8-3.602,5.099-6.601,7.5-7.5l150-63.001C312.1,1.599,314.2,1,316,1s3.9,0.599,5.7,1.199l150,63.001
	c0.601,0,0.601,0.599,0.899,0.599C474.699,67,476.201,67,478.9,72.7z"/>
<g>
	<path style="fill:#1BA9EF;" d="M478.9,72.7l-11.7,35.698l-150.599,110.7L316,218.8V1c1.8,0,3.9,0.599,5.7,1.199l150,63.001
		c0.601,0,0.601,0.599,0.899,0.599C474.699,67,476.201,67,478.9,72.7z"/>
	<path style="fill:#1BA9EF;" d="M481,78.699V271c0,5.7-3.3,10.8-8.401,13.5l-150,75c-2.098,0.899-4.199,1.5-6.599,1.5
		s-4.501-0.601-6.599-1.5l-150-75C154.3,281.8,151,276.7,151,271V78.999c0,0,0,0,0-0.3c0-1.8,0.901-3.9,1.8-5.999L316,151
		l162.9-78.3C480.399,76,481,78.399,481,78.699z"/>
</g>
<path style="fill:#1689FC;" d="M481,78.699V271c0,5.7-3.3,10.8-8.401,13.5l-150,75c-2.098,0.899-4.199,1.5-6.599,1.5V151l162.9-78.3
	C480.399,76,481,78.399,481,78.699z"/>
<g>
</g>
<g>
</g>
<g>
</g>
<g>
</g>
<g>
</g>
<g>
</g>
<g>
</g>
<g>
</g>
<g>
</g>
<g>
</g>
<g>
</g>
<g>
</g>
<g>
</g>
<g>
</g>
<g>
</g>
</svg>
