<svg height="512" viewBox="0 0 64 64" width="512" xmlns="http://www.w3.org/2000/svg"><g id="flat"><path d="m61 24c-4.836 0-4.836 3-9.671 3s-4.836-3-9.671-3-4.832 3-9.665 3-4.833-3-9.667-3-4.832 3-9.664 3-4.831-3-9.662-3v37h58z" fill="#50b4f8"/><path d="m3 55h58v6h-58z" fill="#d3843d"/><path d="m27 15h10v4h-10z" fill="#dd3e46"/><path d="m27 31h10v4h-10z" fill="#dd3e46"/><path d="m29 19h6v12h-6z" fill="#f9bb4b"/><path d="m27 7h10v4h-10z" fill="#dd3e46"/><path d="m35 15h-6l-2-4h10z" fill="#50b4f8"/><path d="m29 2h2v5h-2z" fill="#fcf05a"/><path d="m33 4h2v3h-2z" fill="#fcf05a"/><path d="m27 51h10v4h-10z" fill="#dd3e46"/><path d="m29 35h6v16h-6z" fill="#f9bb4b"/><ellipse cx="16" cy="35" fill="#f4f4e6" rx="2" ry="4"/><path d="m12 45c-1.906 1.156-4.125 2.531-5 1-.77-1.348 1.048-2.966 3-4s3.488-.961 4.005.015-.116 1.839-2.005 2.985z" fill="#f4f4e6"/><path d="m17 40h12v2h-12z" fill="#2d75bb"/><path d="m9.956 38.294-1.912-.588a7.676 7.676 0 0 1 2.33-3.486l1.252 1.56a5.689 5.689 0 0 0 -1.67 2.514z" fill="#fcf05a"/><path d="m22.044 38.294a5.689 5.689 0 0 0 -1.67-2.514l1.252-1.56a7.676 7.676 0 0 1 2.33 3.486z" fill="#fcf05a"/><path d="m16 50v-2a7.45 7.45 0 0 0 3.515-.875l.97 1.75a9.388 9.388 0 0 1 -4.485 1.125z" fill="#fcf05a"/><ellipse cx="48" cy="35" fill="#f4f4e6" rx="2" ry="4"/><path d="m52 45c1.906 1.156 4.125 2.531 5 1 .77-1.348-1.048-2.966-3-4s-3.488-.961-4.005.015.116 1.839 2.005 2.985z" fill="#f4f4e6"/><path d="m35 40h12v2h-12z" fill="#2d75bb"/><path d="m54.044 38.294a5.689 5.689 0 0 0 -1.67-2.514l1.252-1.56a7.676 7.676 0 0 1 2.33 3.486z" fill="#fcf05a"/><path d="m41.956 38.294-1.912-.588a7.676 7.676 0 0 1 2.33-3.486l1.252 1.56a5.689 5.689 0 0 0 -1.67 2.514z" fill="#fcf05a"/><path d="m48 50a9.388 9.388 0 0 1 -4.485-1.125l.97-1.75a7.45 7.45 0 0 0 3.515.875z" fill="#fcf05a"/><path d="m59 18v-1a2.768 2.768 0 0 0 -3-3h-1c-.593-1.9-2-3-5-3-2.227 0-4.518.932-5 3h-1a2.919 2.919 0 0 0 -3 3v1z" fill="#50b4f8"/><path d="m23 12v-1a2.768 2.768 0 0 0 -3-3h-1c-.593-1.9-2-3-5-3-2.227 0-4.518.932-5 3h-1a2.919 2.919 0 0 0 -3 3v1z" fill="#50b4f8"/><g fill="#66342e"><path d="m11 55h2v3h-2z"/><path d="m23 58h2v3h-2z"/><path d="m37 55h2v3h-2z"/><path d="m42 58h2v3h-2z"/><path d="m52 55h2v3h-2z"/></g><path d="m20.005 45c1.906 1.156 4.125 2.531 5 1 .77-1.348-1.048-2.966-3-4s-3.488-.961-4 .015.111 1.839 2 2.985z" fill="#f4f4e6"/><path d="m44 45c-1.906 1.156-4.125 2.531-5 1-.77-1.348 1.048-2.966 3-4s3.488-.961 4.005.015-.121 1.839-2.005 2.985z" fill="#f4f4e6"/><circle cx="16" cy="41" fill="#fcf05a" r="3"/><circle cx="48" cy="41" fill="#fcf05a" r="3"/></g></svg>