<svg id="Layer_3" enable-background="new 0 0 64 64" height="512" viewBox="0 0 64 64" width="512" xmlns="http://www.w3.org/2000/svg"><g><g><path d="m45 23h-2v-4c0-.552.447-1 1-1h11c.552 0 1-.449 1-1v-5h2v5c0 1.654-1.346 3-3 3h-10z" fill="#a8b0bc"/></g><path d="m15 8h6v15h-6z" fill="#8892a0"/><path d="m15 12h6v4h-6z" fill="#c1c8d1"/><path d="m15 20h6v3h-6z" fill="#c1c8d1"/><path d="m29 8h6v15h-6z" fill="#8892a0"/><path d="m29 12h6v4h-6z" fill="#c1c8d1"/><path d="m29 20h6v3h-6z" fill="#c1c8d1"/><path d="m40 57v5h3v-2h4v2h3v-5" fill="#8892a0"/><path d="m14 57v5h3v-2h4v2h3v-5" fill="#8892a0"/><path d="m52 25h10v4h-2v22h2v4h-10" fill="#a8b0bc"/><path d="m12 25h-10v4h2v22h-2v4h10" fill="#a8b0bc"/><path d="m12 23h40v34h-40z" fill="#4d5d7a"/><path d="m16 27h32v26h-32z" fill="#8892a0"/><g><path d="m17 2h2v3h-2z" fill="#c18e59"/></g><g><path d="m31 2h2v3h-2z" fill="#c18e59"/></g><path d="m20 8v-2c0-1.105-.895-2-2-2-1.105 0-2 .895-2 2v2" fill="#674025"/><path d="m34 8v-2c0-1.105-.895-2-2-2-1.105 0-2 .895-2 2v2" fill="#674025"/><circle cx="56" cy="8" fill="#4d5d7a" r="6"/><g><path d="m19 27h2v26h-2z" fill="#4d5d7a"/></g><g><path d="m23 27h2v26h-2z" fill="#4d5d7a"/></g><g><path d="m27 27h2v26h-2z" fill="#4d5d7a"/></g><g><path d="m31 27h2v26h-2z" fill="#4d5d7a"/></g><g><path d="m35 27h2v26h-2z" fill="#4d5d7a"/></g><g><path d="m39 27h2v26h-2z" fill="#4d5d7a"/></g><g><path d="m43 27h2v26h-2z" fill="#4d5d7a"/></g><g><path d="m55 4h2v8h-2z" fill="#8892a0"/></g></g></svg>