<svg height="512" viewBox="0 0 128 128" width="512" xmlns="http://www.w3.org/2000/svg"><g><g fill="#9adb07"><path d="m61.125 42.5v-36a21.236 21.236 0 0 1 7.865 21.546l-3.24 14.454z"/><path d="m64.055 47.384-31.177 18a21.237 21.237 0 0 1 14.728-17.584l14.137-4.421z"/><path d="m66.82 42.4 31.18 18a21.234 21.234 0 0 1 -22.592-3.962l-10.901-10.028z"/><path d="m71.97 118.5h-15.94l4.02-74.4h7.9z"/></g><path d="m65 102.5a1.749 1.749 0 0 1 -1.745-1.655l-.324-6a1.75 1.75 0 1 1 3.494-.189l.324 6a1.749 1.749 0 0 1 -1.649 1.844z" fill="#94c600"/><path d="m51.53 109.5h24.94v8.333h-24.94z" fill="#94c600"/><circle cx="64" cy="44.096" fill="#eaeaf0" r="6"/><g fill="#3ba9fd"><path d="m95.672 50.42a1.72 1.72 0 0 1 -.257-.019 1.75 1.75 0 0 1 -1.477-1.986 29.476 29.476 0 0 0 .312-4.315 30.351 30.351 0 0 0 -17.688-27.518 1.75 1.75 0 1 1 1.457-3.182 33.862 33.862 0 0 1 19.731 30.7 33.1 33.1 0 0 1 -.349 4.825 1.751 1.751 0 0 1 -1.729 1.495z"/><path d="m32.15 48.885a1.746 1.746 0 0 1 -1.75-1.633c-.1-1.033-.154-2.093-.154-3.152a33.6 33.6 0 0 1 21.224-31.334 1.75 1.75 0 0 1 1.3 3.249 30.121 30.121 0 0 0 -19.02 28.085c0 .96.048 1.921.142 2.855 0 .058.008.116.008.175a1.754 1.754 0 0 1 -1.75 1.755z"/><path d="m89.971 47.13h-.086a1.75 1.75 0 0 1 -1.663-1.834c.019-.391.028-.793.028-1.194a24.238 24.238 0 0 0 -10.736-20.13 1.75 1.75 0 1 1 1.953-2.9 27.732 27.732 0 0 1 12.283 23.028c0 .459-.011.917-.032 1.365a1.751 1.751 0 0 1 -1.747 1.665z"/><path d="m38.062 44.1c-.04 0-.079 0-.119 0a1.75 1.75 0 0 1 -1.63-1.862 27.884 27.884 0 0 1 15.006-22.81 1.75 1.75 0 0 1 1.6 3.112 24.368 24.368 0 0 0 -13.115 19.93 1.75 1.75 0 0 1 -1.742 1.63z"/><path d="m44.581 41.07a1.751 1.751 0 0 1 -1.7-2.164 21.754 21.754 0 0 1 8.2-12.3 1.749 1.749 0 1 1 2.082 2.812 18.261 18.261 0 0 0 -6.883 10.316 1.749 1.749 0 0 1 -1.699 1.336z"/><path d="m83.87 43.605a1.746 1.746 0 0 1 -1.745-1.613 18.2 18.2 0 0 0 -5.5-11.058 1.75 1.75 0 1 1 2.42-2.528 21.687 21.687 0 0 1 6.559 13.251 1.784 1.784 0 0 1 .011.193 1.754 1.754 0 0 1 -1.745 1.755z"/></g><path d="m75.005 74.6h-22.38a1.75 1.75 0 0 1 0-3.5h22.38a1.25 1.25 0 0 0 0-2.5 1.75 1.75 0 0 1 0-3.5 4.75 4.75 0 0 1 0 9.5z" fill="#3ba9fd"/><path d="m91.671 84.375h-14.381a1.75 1.75 0 0 1 0-3.5h14.381a1.25 1.25 0 0 0 0-2.5 1.75 1.75 0 1 1 0-3.5 4.75 4.75 0 0 1 0 9.5z" fill="#3ba9fd"/><path d="m48.847 84.375h-10.319a1.75 1.75 0 1 1 0-3.5h10.319a1.75 1.75 0 1 1 0 3.5z" fill="#3ba9fd"/><path d="m24.192 115.5h79.615v6h-79.615z" fill="#9adb07"/></g></svg>