<svg height="512" viewBox="0 0 64 64" width="512" xmlns="http://www.w3.org/2000/svg"><g id="Flat"><g id="Color"><g><g><path d="m32.714 61-.714-30h-4l-.714 30z" fill="#d0d8da"/><path d="m29.546 50.886.366-12.8a3.909 3.909 0 0 1 2.175-3.441l-.087-3.645h-4l-.714 30h5.428l-.146-6.133a3.993 3.993 0 0 1 -3.022-3.981z" fill="#93999a"/><path d="m29.124 27.4 2 3.464-6.4 5.027a5.2 5.2 0 0 1 -7.724-1.491z" fill="#d0d8da"/><path d="m29.124 27.4-4.982 2.877a6 6 0 0 0 1.528 2.868l-.95.746a5.206 5.206 0 0 1 -6.6-.139l-1.12.648a5.2 5.2 0 0 0 7.72 1.491l6.4-5.027z" fill="#93999a"/><path d="m32 29h-4l-1.151-8.06a5.2 5.2 0 0 1 5.151-5.94z" fill="#d0d8da"/><path d="m31.378 23.5a4.071 4.071 0 0 1 -2.47-3.141l-.059-.415a5.187 5.187 0 0 1 1.884-4.78 5.2 5.2 0 0 0 -3.884 5.78l1.151 8.056h4v-5.18a5.913 5.913 0 0 0 -.622-.32z" fill="#93999a"/><path d="m29.177 31 2-3.464 7.556 3.033a5.2 5.2 0 0 1 2.567 7.431z" fill="#d0d8da"/><path d="m37.893 33.878a4.012 4.012 0 0 1 -1.951-4.048c.017-.121.017-.247.026-.371l-4.791-1.923-2 3.464 12.123 7a5.169 5.169 0 0 0 .629-1.791z" fill="#93999a"/><circle cx="30" cy="29" fill="#aae1f9" r="4"/><path d="m32.405 48h-4.81l-.095 4h5z" fill="#aae1f9"/><g fill="#57b7eb"><path d="m27.286 61h5.428l-.095-4h-5.238z"/><path d="m32 31a3.985 3.985 0 0 1 -3.64-5.64 3.995 3.995 0 1 0 5.28 5.28 3.961 3.961 0 0 1 -1.64.36z"/><path d="m29.546 50.886.083-2.886h-2.029l-.1 4h2.186a3.945 3.945 0 0 1 -.14-1.114z"/></g><circle cx="30" cy="29" fill="#4891d3" r="1"/></g><g><path d="m5 45h24v16h-24z" fill="#c4f236"/><path d="m23 41h4v4h-4z" fill="#d0d8da"/><path d="m7 41h4v4h-4z" fill="#d0d8da"/><path d="m19 57a10 10 0 0 1 -10-10v-2h-4v16h24v-4z" fill="#a1d51c"/><path d="m26 44a2 2 0 0 1 -2-2v-1h-1v4h4v-1z" fill="#93999a"/><path d="m10 44a2 2 0 0 1 -2-2v-1h-1v4h4v-1z" fill="#93999a"/><path d="m17 58a1.015 1.015 0 0 1 -.372-.071 1 1 0 0 1 -.557-1.3l1.029-2.558-1.648.824a1 1 0 0 1 -1.376-1.267l2-5a1 1 0 1 1 1.858.744l-1.024 2.557 1.648-.824a1 1 0 0 1 1.376 1.267l-2 5a1 1 0 0 1 -.934.628z" fill="#f9e109"/><path d="m16.628 57.929a1.015 1.015 0 0 0 .372.071 1 1 0 0 0 .929-.628l.167-.418a9.936 9.936 0 0 1 -2-.386l-.024.06a1 1 0 0 0 .556 1.301z" fill="#fcbc04"/></g><g><path d="m52 61h-6l1-42h4z" fill="#d0d8da"/><g><path d="m52 61-.286-12-.146-6.133a3.993 3.993 0 0 1 -3.022-3.981l.366-12.8a3.909 3.909 0 0 1 2.175-3.441l-.087-3.645h-4l-.714 30-.286 12z" fill="#93999a"/><path d="m48.124 15.4 2 3.464-6.4 5.027a5.2 5.2 0 0 1 -7.724-1.491z" fill="#d0d8da"/><path d="m48.124 15.4-4.982 2.877a6 6 0 0 0 1.528 2.868l-.95.746a5.206 5.206 0 0 1 -6.6-.139l-1.12.648a5.2 5.2 0 0 0 7.72 1.491l6.4-5.027z" fill="#93999a"/><path d="m51 17h-4l-1.151-8.06a5.2 5.2 0 0 1 5.151-5.94z" fill="#d0d8da"/><path d="m50.378 11.5a4.071 4.071 0 0 1 -2.47-3.141l-.059-.415a5.187 5.187 0 0 1 1.884-4.78 5.2 5.2 0 0 0 -3.884 5.78l1.151 8.056h4v-5.18a5.913 5.913 0 0 0 -.622-.32z" fill="#93999a"/><path d="m48.177 19 2-3.464 7.556 3.033a5.2 5.2 0 0 1 2.567 7.431z" fill="#d0d8da"/><path d="m56.893 21.878a4.012 4.012 0 0 1 -1.951-4.048c.017-.121.017-.247.026-.371l-4.791-1.923-2 3.464 12.123 7a5.169 5.169 0 0 0 .629-1.791z" fill="#93999a"/><circle cx="49" cy="17" fill="#aae1f9" r="4"/><path d="m51.405 36h-4.81l-.095 4h5z" fill="#aae1f9"/><g fill="#57b7eb"><path d="m46.286 49h5.428l-.095-4h-5.238z"/><path d="m51 19a3.985 3.985 0 0 1 -3.64-5.64 3.995 3.995 0 1 0 5.28 5.28 3.961 3.961 0 0 1 -1.64.36z"/><path d="m48.546 38.886.083-2.886h-2.029l-.1 4h2.186a3.945 3.945 0 0 1 -.14-1.114z"/></g></g><circle cx="49" cy="17" fill="#4891d3" r="1"/></g><g fill="#aae1f9"><path d="m19 22h-15a1 1 0 0 1 0-2h15a2 2 0 1 0 -2-2 1 1 0 0 1 -2 0 4 4 0 1 1 4 4z"/><path d="m15 32a4 4 0 0 1 -4-4 1 1 0 0 1 2 0 2 2 0 1 0 2-2h-11a1 1 0 0 1 0-2h11a4 4 0 0 1 0 8z"/><path d="m39 11h-16a1 1 0 0 1 0-2h16a2 2 0 1 0 -2-2 1 1 0 0 1 -2 0 4 4 0 1 1 4 4z"/><path d="m41 15h-4a1 1 0 0 1 0-2h4a1 1 0 0 1 0 2z"/><path d="m41 48h-4a1 1 0 0 1 0-2h4a1 1 0 0 1 0 2z"/><path d="m58 33h-3a1 1 0 0 1 0-2h3a1 1 0 0 1 0 2z"/><path d="m60 39h-5a1 1 0 0 1 0-2h5a1 1 0 0 1 0 2z"/></g><path d="m36 61v-3a1 1 0 0 1 2 0v3z" fill="#c4f236"/><path d="m40 61v-5a1 1 0 0 1 2 0v5z" fill="#c4f236"/><path d="m54 61v-2a1 1 0 0 1 2 0v2z" fill="#c4f236"/><path d="m58 61v-6a1 1 0 0 1 2 0v6z" fill="#c4f236"/><path d="m13 13h-6a1 1 0 0 1 0-2h6a1 1 0 0 1 0 2z" fill="#aae1f9"/><path d="m20 6h-10a1 1 0 0 1 0-2h10a1 1 0 0 1 0 2z" fill="#aae1f9"/></g></g></g></svg>