<svg id="Capa_1" enable-background="new 0 0 512 512" height="512" viewBox="0 0 512 512" width="512" xmlns="http://www.w3.org/2000/svg"><g><path d="m342.287 118.5-21.624 20h-128.02l-22.932-20v-10.056c0-47.655 38.632-86.287 86.287-86.287 47.655 0 86.287 38.632 86.287 86.287v10.056z" fill="#eab14d"/><path d="m256 22.157c-4.136 0-8.199.309-12.18.872 41.885 5.92 74.108 41.896 74.108 85.415v30.056l24.359-20v-10.056c0-47.655-38.632-86.287-86.287-86.287z" fill="#e49542"/><path d="m359.863 504.5h-207.727c-5.817 0-10.533-4.716-10.533-10.533v-145.762c0-36.868 29.887-66.755 66.755-66.755h95.282c36.868 0 66.755 29.887 66.755 66.755v145.762c.001 5.817-4.715 10.533-10.532 10.533z" fill="#eab14d"/><path d="m270.931 281.45c40.48 0 73.296 32.816 73.296 73.296v149.754h15.636c5.817 0 10.533-4.716 10.533-10.533v-145.762c0-36.868-29.887-66.755-66.755-66.755z" fill="#e49542"/><path d="m256 392.975 30.979-120.201h-61.958z" fill="#365e7d"/><g><path d="m256 293.965c-44.898 0-81.295-36.397-81.295-81.295v-80.098h162.591v80.098c-.001 44.897-36.398 81.295-81.296 81.295z" fill="#f1d0a5"/><path d="m174.704 132.571v37.035h117.044c12.228 0 22.141 9.913 22.141 22.141v20.921c0 40.923-30.241 74.769-69.593 80.445 3.823.551 7.727.851 11.702.851 44.898 0 81.295-36.397 81.295-81.295v-80.098z" fill="#f1b986"/></g><path d="m357.104 152.571h-202.208c-5.424 0-9.821-4.397-9.821-9.821v-14.429c0-5.424 4.397-9.821 9.821-9.821h202.208c5.424 0 9.821 4.397 9.821 9.821v14.429c0 5.424-4.397 9.821-9.821 9.821z" fill="#df6b57"/><path d="m356.816 118.5h-24.797c5.583 0 10.109 4.272 10.109 9.541v14.988c0 5.27-4.526 9.541-10.109 9.541h24.797c5.583 0 10.109-4.272 10.109-9.541v-14.988c0-5.269-4.526-9.541-10.109-9.541z" fill="#dd544f"/><g><path d="m256 42.201c-4.142 0-7.5-3.357-7.5-7.5v-27.201c0-4.143 3.358-7.5 7.5-7.5 4.143 0 7.5 3.357 7.5 7.5v27.201c0 4.143-3.358 7.5-7.5 7.5z" fill="#df6b57"/></g><g><g><path d="m222.958 42.534c-2.525 0-4.991-1.275-6.405-3.587l-7.877-12.876c-2.162-3.533-1.049-8.15 2.484-10.312 3.535-2.165 8.15-1.05 10.312 2.483l7.877 12.876c2.162 3.533 1.049 8.15-2.484 10.312-1.222.749-2.573 1.104-3.907 1.104z" fill="#df6b57"/></g><g><path d="m289.042 42.534c-1.335 0-2.686-.355-3.907-1.104-3.533-2.161-4.646-6.778-2.483-10.312l7.877-12.876c2.162-3.534 6.78-4.645 10.312-2.483 3.533 2.161 4.646 6.778 2.483 10.312l-7.877 12.876c-1.415 2.312-3.881 3.587-6.405 3.587z" fill="#df6b57"/></g></g><g><g><path d="m220.982 213.92c-4.142 0-7.5-3.357-7.5-7.5v-6.687c0-4.143 3.358-7.5 7.5-7.5s7.5 3.357 7.5 7.5v6.687c0 4.142-3.358 7.5-7.5 7.5z" fill="#2b4d66"/></g><g><path d="m291.017 213.92c-4.143 0-7.5-3.357-7.5-7.5v-6.687c0-4.143 3.357-7.5 7.5-7.5s7.5 3.357 7.5 7.5v6.687c0 4.142-3.357 7.5-7.5 7.5z" fill="#2b4d66"/></g></g><path d="m141.603 422.846h114.397v27.21h-114.397z" fill="#e7ecf6"/><path d="m256 422.846h114.397v27.21h-114.397z" fill="#e7ecf6"/><path d="m344.227 422.846h26.169v27.21h-26.169z" fill="#d8e2f1"/><path d="m229.831 422.846h26.169v27.21h-26.169z" fill="#d8e2f1"/><g><path d="m337.295 375.324h-33.811c-4.143 0-7.5-3.357-7.5-7.5s3.357-7.5 7.5-7.5h33.811c4.143 0 7.5 3.357 7.5 7.5s-3.358 7.5-7.5 7.5z" fill="#e7ecf6"/></g><g><path d="m256 254.552c-6.997 0-13.994-2.331-20.796-6.995-3.417-2.342-4.287-7.01-1.945-10.427 2.343-3.415 7.011-4.286 10.427-1.944 8.517 5.838 16.114 5.838 24.629 0 3.419-2.343 8.087-1.471 10.427 1.944 2.343 3.417 1.472 8.085-1.944 10.427-6.804 4.664-13.801 6.995-20.798 6.995z" fill="#dd544f"/></g><g><path d="m272.555 93.52h-33.111c-4.142 0-7.5-3.357-7.5-7.5s3.358-7.5 7.5-7.5h33.111c4.143 0 7.5 3.357 7.5 7.5s-3.357 7.5-7.5 7.5z" fill="#df6b57"/></g><g><path d="m256 512c-4.142 0-7.5-3.357-7.5-7.5v-160.88c0-4.143 3.358-7.5 7.5-7.5s7.5 3.357 7.5 7.5v160.88c.001 4.143-3.358 7.5-7.5 7.5z" fill="#365e7d"/></g></g></svg>